<?xml version="1.0" encoding="UTF-8" standalone="no"?>
<svg
   xmlns:dc="http://purl.org/dc/elements/1.1/"
   xmlns:cc="http://creativecommons.org/ns#"
   xmlns:rdf="http://www.w3.org/1999/02/22-rdf-syntax-ns#"
   xmlns:svg="http://www.w3.org/2000/svg"
   xmlns="http://www.w3.org/2000/svg"
   xmlns:sodipodi="http://sodipodi.sourceforge.net/DTD/sodipodi-0.dtd"
   xmlns:inkscape="http://www.inkscape.org/namespaces/inkscape"
   width="45.656166mm"
   height="10.435384mm"
   viewBox="0 0 45.656167 10.435384"
   version="1.1"
   id="svg8"
   sodipodi:docname="logoblue.svg"
   inkscape:version="1.0.2-2 (e86c870879, 2021-01-15)">
  <sodipodi:namedview
     pagecolor="#ffffff"
     bordercolor="#666666"
     borderopacity="1"
     objecttolerance="10"
     gridtolerance="10"
     guidetolerance="10"
     inkscape:pageopacity="0"
     inkscape:pageshadow="2"
     inkscape:window-width="1563"
     inkscape:window-height="801"
     id="namedview23"
     showgrid="false"
     fit-margin-top="0"
     fit-margin-left="0"
     fit-margin-right="0"
     fit-margin-bottom="0"
     inkscape:zoom="0.78234077"
     inkscape:cx="-22.329913"
     inkscape:cy="67.182113"
     inkscape:window-x="4210"
     inkscape:window-y="201"
     inkscape:window-maximized="0"
     inkscape:current-layer="svg8" />
  <defs
     id="defs2" />
  <metadata
     id="metadata5">
    <rdf:RDF>
      <cc:Work
         rdf:about="">
        <dc:format>image/svg+xml</dc:format>
        <dc:type
           rdf:resource="http://purl.org/dc/dcmitype/StillImage" />
        <dc:title></dc:title>
      </cc:Work>
    </rdf:RDF>
  </metadata>
  <g
     id="g2146"
     transform="matrix(0.2591167,0,0,0.2591167,-5.3079079,-20.372672)"
     style="fill:#429fe5;fill-opacity:1">
    <g
       aria-label="protobject"
       id="text1308-9"
       style="font-style:normal;font-weight:normal;font-size:33.0705px;line-height:1.25;font-family:sans-serif;fill:#429fe5;fill-opacity:1;stroke:none;stroke-width:0.826765">
      <path
         d="m 22.171218,112.1901 q -0.727551,0 -1.223608,-0.49606 -0.462987,-0.46299 -0.462987,-1.19054 V 95.423353 q 0.03307,-2.61257 1.223608,-4.696011 1.190538,-2.083442 3.240909,-3.27398 2.050371,-1.223608 4.62987,-1.223608 2.61257,0 4.662941,1.223608 2.050371,1.190538 3.240909,3.27398 1.223608,2.083441 1.223608,4.696011 0,2.612569 -1.124397,4.696007 -1.091326,2.05037 -3.009415,3.27398 -1.918089,1.19054 -4.332236,1.19054 -1.951159,0 -3.604684,-0.79369 -1.620455,-0.82676 -2.777922,-2.21572 v 8.92903 q 0,0.72755 -0.462987,1.19054 -0.462987,0.49606 -1.223609,0.49606 z m 7.407792,-10.58256 q 1.686596,0 3.009416,-0.7937 1.32282,-0.826758 2.083441,-2.215719 0.793692,-1.422032 0.793692,-3.174768 0,-1.785807 -0.793692,-3.174768 -0.760621,-1.422032 -2.083441,-2.215724 -1.32282,-0.826762 -3.009416,-0.826762 -1.653525,0 -3.009415,0.826762 -1.32282,0.793692 -2.083442,2.215724 -0.760621,1.388961 -0.760621,3.174768 0,1.752736 0.760621,3.174768 0.760622,1.388961 2.083442,2.215719 1.35589,0.7937 3.009415,0.7937 z"
         style="font-style:normal;font-variant:normal;font-weight:bold;font-stretch:normal;font-family:Comfortaa;-inkscape-font-specification:'Comfortaa Bold';fill:#429fe5;fill-opacity:1;stroke-width:0.826765"
         id="path865" />
      <path
         d="m 45.353609,93.141488 q 0,-1.98423 0.959044,-3.538543 0.992115,-1.587384 2.64564,-2.513358 1.653525,-0.925974 3.637755,-0.925974 1.98423,0 2.943274,0.66141 0.992115,0.628339 0.760622,1.521243 -0.09921,0.462987 -0.396846,0.727551 -0.264564,0.231493 -0.62834,0.297634 -0.363775,0.06614 -0.793692,-0.03307 -2.116511,-0.429917 -3.803107,-0.06614 -1.686595,0.363775 -2.67871,1.35589 -0.959045,0.992115 -0.959045,2.513358 z m 0.03307,11.310112 q -0.793692,0 -1.223608,-0.39685 -0.429917,-0.42991 -0.429917,-1.25668 V 88.015561 q 0,-0.793692 0.429917,-1.223609 0.429916,-0.429916 1.223608,-0.429916 0.826763,0 1.223609,0.429916 0.429916,0.396846 0.429916,1.223609 v 14.782509 q 0,0.7937 -0.429916,1.22361 -0.396846,0.42992 -1.223609,0.42992 z"
         style="font-style:normal;font-variant:normal;font-weight:bold;font-stretch:normal;font-family:Comfortaa;-inkscape-font-specification:'Comfortaa Bold';fill:#429fe5;fill-opacity:1;stroke-width:0.826765"
         id="path867" />
      <path
         d="m 66.68399,104.58388 q -2.678711,0 -4.729082,-1.15747 -2.050371,-1.19053 -3.240909,-3.24091 -1.157467,-2.083437 -1.157467,-4.762147 0,-2.711781 1.157467,-4.762152 1.190538,-2.083442 3.240909,-3.240909 2.050371,-1.190538 4.729082,-1.190538 2.645639,0 4.69601,1.190538 2.050371,1.157467 3.207839,3.240909 1.190538,2.050371 1.190538,4.762152 0,2.67871 -1.157468,4.762147 -1.157467,2.05038 -3.207838,3.24091 -2.050371,1.15747 -4.729081,1.15747 z m 0,-2.97634 q 1.719666,0 3.042485,-0.7937 1.32282,-0.79369 2.050371,-2.182649 0.760622,-1.388961 0.760622,-3.207838 0,-1.818878 -0.760622,-3.207839 -0.727551,-1.422031 -2.050371,-2.215723 -1.322819,-0.793692 -3.042485,-0.793692 -1.719666,0 -3.042486,0.793692 -1.32282,0.793692 -2.083442,2.215723 -0.760621,1.388961 -0.760621,3.207839 0,1.818877 0.760621,3.207838 0.760622,1.388959 2.083442,2.182649 1.32282,0.7937 3.042486,0.7937 z"
         style="font-style:normal;font-variant:normal;font-weight:bold;font-stretch:normal;font-family:Comfortaa;-inkscape-font-specification:'Comfortaa Bold';fill:#429fe5;fill-opacity:1;stroke-width:0.826765"
         id="path869" />
      <path
         d="m 87.386094,104.4516 q -1.653525,0 -2.976345,-0.82676 Q 83.08693,102.765 82.326308,101.3099 81.565687,99.8548 81.565687,98.035922 V 82.261294 q 0,-0.727551 0.462987,-1.190538 0.462987,-0.462987 1.190537,-0.462987 0.727551,0 1.190538,0.462987 0.462987,0.462987 0.462987,1.190538 v 15.774628 q 0,1.32282 0.727551,2.215728 0.727551,0.8929 1.785807,0.8929 h 1.124397 q 0.595269,0 0.992115,0.46299 0.429917,0.46298 0.429917,1.19053 0,0.72756 -0.562199,1.19054 -0.529128,0.46299 -1.388961,0.46299 z m -7.34165,-14.584091 q -0.694481,0 -1.124397,-0.396846 -0.429917,-0.396846 -0.429917,-0.992115 0,-0.66141 0.429917,-1.058256 0.429916,-0.396846 1.124397,-0.396846 h 7.639285 q 0.69448,0 1.124397,0.396846 0.429916,0.396846 0.429916,1.058256 0,0.595269 -0.429916,0.992115 -0.429917,0.396846 -1.124397,0.396846 z"
         style="font-style:normal;font-variant:normal;font-weight:bold;font-stretch:normal;font-family:Comfortaa;-inkscape-font-specification:'Comfortaa Bold';fill:#429fe5;fill-opacity:1;stroke-width:0.826765"
         id="path871" />
      <path
         d="m 102.26779,104.58388 q -2.678713,0 -4.729084,-1.15747 -2.050371,-1.19053 -3.240909,-3.24091 -1.157468,-2.083437 -1.157468,-4.762147 0,-2.711781 1.157468,-4.762152 1.190538,-2.083442 3.240909,-3.240909 2.050371,-1.190538 4.729084,-1.190538 2.64564,0 4.69601,1.190538 2.05037,1.157467 3.20784,3.240909 1.19053,2.050371 1.19053,4.762152 0,2.67871 -1.15746,4.762147 -1.15747,2.05038 -3.20784,3.24091 -2.05037,1.15747 -4.72908,1.15747 z m 0,-2.97634 q 1.71966,0 3.04248,-0.7937 1.32282,-0.79369 2.05037,-2.182649 0.76063,-1.388961 0.76063,-3.207838 0,-1.818878 -0.76063,-3.207839 -0.72755,-1.422031 -2.05037,-2.215723 -1.32282,-0.793692 -3.04248,-0.793692 -1.71967,0 -3.042489,0.793692 -1.32282,0.793692 -2.083441,2.215723 -0.760622,1.388961 -0.760622,3.207839 0,1.818877 0.760622,3.207838 0.760621,1.388959 2.083441,2.182649 1.322819,0.7937 3.042489,0.7937 z"
         style="font-style:normal;font-variant:normal;font-weight:bold;font-stretch:normal;font-family:Comfortaa;-inkscape-font-specification:'Comfortaa Bold';fill:#429fe5;fill-opacity:1;stroke-width:0.826765"
         id="path873" />
      <path
         d="m 125.48325,104.58388 q -2.5795,0 -4.62987,-1.19054 -2.05037,-1.22361 -3.24091,-3.30705 -1.19053,-2.083438 -1.2236,-4.696008 V 80.310135 q 0,-0.760622 0.46298,-1.223609 0.49606,-0.462987 1.22361,-0.462987 0.76062,0 1.22361,0.462987 0.46299,0.462987 0.46299,1.223609 v 8.929034 q 1.15746,-1.388961 2.77792,-2.182653 1.65352,-0.826762 3.60468,-0.826762 2.41415,0 4.33224,1.223608 1.91809,1.190538 3.00941,3.27398 1.1244,2.050371 1.1244,4.66294 0,2.61257 -1.22361,4.696008 -1.19053,2.08344 -3.24091,3.30705 -2.05037,1.19054 -4.66294,1.19054 z m 0,-2.97634 q 1.6866,0 3.00942,-0.7937 1.32282,-0.826758 2.08344,-2.24879 0.79369,-1.422031 0.79369,-3.174768 0,-1.785807 -0.79369,-3.174768 -0.76062,-1.388961 -2.08344,-2.182653 -1.32282,-0.826762 -3.00942,-0.826762 -1.65352,0 -3.00941,0.826762 -1.32282,0.793692 -2.08344,2.182653 -0.76062,1.388961 -0.76062,3.174768 0,1.752737 0.76062,3.174768 0.76062,1.422032 2.08344,2.24879 1.35589,0.7937 3.00941,0.7937 z"
         style="font-style:normal;font-variant:normal;font-weight:bold;font-stretch:normal;font-family:Comfortaa;-inkscape-font-specification:'Comfortaa Bold';fill:#429fe5;fill-opacity:1;stroke-width:0.826765"
         id="path875" />
      <path
         d="m 135.00753,112.1901 q -0.72755,0 -1.19054,-0.49606 -0.46298,-0.46299 -0.46298,-1.19054 0,-0.76062 0.46298,-1.22361 0.46299,-0.46298 1.19054,-0.46298 1.32282,0 2.31494,-0.59527 0.99211,-0.5622 1.55431,-1.55432 0.59527,-0.99211 0.59527,-2.28186 V 88.048631 q 0,-0.760621 0.46299,-1.223608 0.49605,-0.462987 1.2236,-0.462987 0.76063,0 1.22361,0.462987 0.46299,0.462987 0.46299,1.223608 v 16.336829 q 0,2.28186 -1.02519,4.0346 -0.99211,1.75274 -2.74485,2.74485 -1.75273,1.02519 -4.06767,1.02519 z m 6.15111,-28.771339 q -0.8929,0 -1.55431,-0.628339 -0.62834,-0.66141 -0.62834,-1.554313 0,-0.892904 0.62834,-1.521243 0.66141,-0.66141 1.55431,-0.66141 0.89291,0 1.52125,0.66141 0.66141,0.628339 0.66141,1.521243 0,0.892903 -0.66141,1.554313 -0.62834,0.628339 -1.52125,0.628339 z"
         style="font-style:normal;font-variant:normal;font-weight:bold;font-stretch:normal;font-family:Comfortaa;-inkscape-font-specification:'Comfortaa Bold';fill:#429fe5;fill-opacity:1;stroke-width:0.826765"
         id="path877" />
      <path
         d="m 156.30486,104.58388 q -2.74485,0 -4.89443,-1.15747 -2.11651,-1.19053 -3.34012,-3.24091 -1.19054,-2.083437 -1.19054,-4.762147 0,-2.711781 1.1244,-4.762152 1.15746,-2.083442 3.17476,-3.240909 2.01731,-1.190538 4.62987,-1.190538 2.5795,0 4.43145,1.157467 1.85195,1.124397 2.81099,3.141698 0.99212,1.98423 0.99212,4.596799 0,0.62834 -0.42992,1.058256 -0.42991,0.396846 -1.09132,0.396846 h -13.32741 v -2.64564 h 13.22819 l -1.35589,0.925974 q -0.0331,-1.653525 -0.66141,-2.943274 -0.62834,-1.32282 -1.7858,-2.083442 -1.15747,-0.760621 -2.811,-0.760621 -1.88501,0 -3.2409,0.826762 -1.32282,0.826763 -2.0173,2.281865 -0.69448,1.422031 -0.69448,3.240909 0,1.818877 0.82676,3.240909 0.82676,1.422028 2.28186,2.248798 1.4551,0.82676 3.34012,0.82676 1.02519,0 2.08344,-0.36378 1.09133,-0.39684 1.75274,-0.8929 0.49606,-0.36378 1.05826,-0.36378 0.59527,-0.0331 1.02518,0.33071 0.5622,0.49606 0.59527,1.09133 0.0331,0.59526 -0.52913,1.02518 -1.12439,0.8929 -2.81099,1.4551 -1.65352,0.5622 -3.17477,0.5622 z"
         style="font-style:normal;font-variant:normal;font-weight:bold;font-stretch:normal;font-family:Comfortaa;-inkscape-font-specification:'Comfortaa Bold';fill:#429fe5;fill-opacity:1;stroke-width:0.826765"
         id="path879" />
      <path
         d="m 175.88252,104.58388 q -2.64564,0 -4.72908,-1.19054 -2.05037,-1.22361 -3.24091,-3.27398 -1.15747,-2.083438 -1.15747,-4.696007 0,-2.678711 1.15747,-4.762152 1.15746,-2.083442 3.17477,-3.240909 2.0173,-1.190538 4.62987,-1.190538 1.95115,0 3.57161,0.760621 1.62045,0.727551 2.9102,2.215724 0.46299,0.529128 0.33071,1.091326 -0.13228,0.562199 -0.72755,0.992115 -0.46299,0.330705 -1.02519,0.231494 -0.5622,-0.132282 -1.02518,-0.595269 -1.62046,-1.719666 -4.0346,-1.719666 -1.6866,0 -2.97635,0.793692 -1.28975,0.760621 -2.0173,2.149582 -0.72755,1.388961 -0.72755,3.27398 0,1.785807 0.72755,3.174768 0.76062,1.388961 2.08344,2.215719 1.32282,0.7937 3.07556,0.7937 1.15747,0 2.0173,-0.26457 0.8929,-0.29763 1.62045,-0.8929 0.52913,-0.42992 1.09133,-0.462988 0.5622,-0.06614 0.99211,0.297638 0.5622,0.46298 0.62834,1.05825 0.0661,0.5622 -0.39684,1.02519 -2.38108,2.21572 -5.95269,2.21572 z"
         style="font-style:normal;font-variant:normal;font-weight:bold;font-stretch:normal;font-family:Comfortaa;-inkscape-font-specification:'Comfortaa Bold';fill:#429fe5;fill-opacity:1;stroke-width:0.826765"
         id="path881" />
      <path
         d="m 194.13743,104.4516 q -1.65353,0 -2.97635,-0.82676 -1.32282,-0.85984 -2.08344,-2.31494 -0.76062,-1.4551 -0.76062,-3.273978 V 82.261294 q 0,-0.727551 0.46299,-1.190538 0.46299,-0.462987 1.19054,-0.462987 0.72755,0 1.19053,0.462987 0.46299,0.462987 0.46299,1.190538 v 15.774628 q 0,1.32282 0.72755,2.215728 0.72755,0.8929 1.78581,0.8929 h 1.1244 q 0.59527,0 0.99211,0.46299 0.42992,0.46298 0.42992,1.19053 0,0.72756 -0.5622,1.19054 -0.52913,0.46299 -1.38896,0.46299 z m -7.34165,-14.584091 q -0.69448,0 -1.1244,-0.396846 -0.42991,-0.396846 -0.42991,-0.992115 0,-0.66141 0.42991,-1.058256 0.42992,-0.396846 1.1244,-0.396846 h 7.63928 q 0.69448,0 1.1244,0.396846 0.42992,0.396846 0.42992,1.058256 0,0.595269 -0.42992,0.992115 -0.42992,0.396846 -1.1244,0.396846 z"
         style="font-style:normal;font-variant:normal;font-weight:bold;font-stretch:normal;font-family:Comfortaa;-inkscape-font-specification:'Comfortaa Bold';fill:#429fe5;fill-opacity:1;stroke-width:0.826765"
         id="path883" />
    </g>
    <g
       aria-label=")"
       transform="rotate(90)"
       id="text1308-7-5"
       style="font-style:normal;font-weight:normal;font-size:33.0705px;line-height:1.25;font-family:sans-serif;fill:#429fe5;fill-opacity:1;stroke:none;stroke-width:0.826765">
      <path
         d="m 113.5721,-67.527258 q -0.72755,0 -1.22361,-0.496057 -0.46298,-0.496058 -0.46298,-1.223609 0,-0.429916 0.19842,-0.826762 1.68659,-3.505473 2.5795,-7.110158 0.92597,-3.604684 0.92597,-7.110157 0,-7.110157 -3.4724,-14.154174 -0.19842,-0.330705 -0.23149,-0.859833 0,-0.727552 0.46298,-1.223612 0.49606,-0.52912 1.22361,-0.52912 1.09133,0 1.58739,1.157463 1.88501,3.836178 2.81099,7.738497 0.92597,3.902319 0.92597,7.837708 0,3.93539 -0.95904,7.837709 -0.92598,3.902319 -2.77792,7.837708 -0.29764,0.62834 -0.69449,0.859833 -0.36377,0.264564 -0.8929,0.264564 z"
         style="font-style:normal;font-variant:normal;font-weight:bold;font-stretch:normal;font-family:Comfortaa;-inkscape-font-specification:'Comfortaa Bold';fill:#429fe5;fill-opacity:1;stroke-width:0.826765"
         id="path886" />
    </g>
    <g
       aria-label="."
       transform="scale(1.3583251,0.73620078)"
       id="text1308-8-5-9"
       style="font-style:normal;font-weight:normal;font-size:39.3193px;line-height:1.25;font-family:sans-serif;fill:#429fe5;fill-opacity:1;stroke:none;stroke-width:0.982993">
      <path
         d="m 49.24044,132.06139 q -1.10094,0 -1.926646,-0.78639 -0.786386,-0.8257 -0.786386,-1.92664 0,-1.14026 0.786386,-1.92665 0.825706,-0.8257 1.926646,-0.8257 1.14026,0 1.926646,0.8257 0.786386,0.78639 0.786386,1.92665 0,1.10094 -0.786386,1.92664 -0.786386,0.78639 -1.926646,0.78639 z"
         style="font-style:normal;font-variant:normal;font-weight:bold;font-stretch:normal;font-family:Comfortaa;-inkscape-font-specification:'Comfortaa Bold';fill:#429fe5;fill-opacity:1;stroke-width:0.982993"
         id="path889" />
    </g>
    <g
       aria-label="."
       transform="scale(1.3583251,0.73620078)"
       id="text1308-8-5-7-1"
       style="font-style:normal;font-weight:normal;font-size:39.3193px;line-height:1.25;font-family:sans-serif;fill:#429fe5;fill-opacity:1;stroke:none;stroke-width:0.982993">
      <path
         d="m 75.459698,132.06139 q -1.100941,0 -1.926646,-0.78639 -0.786386,-0.8257 -0.786386,-1.92664 0,-1.14026 0.786386,-1.92665 0.825705,-0.8257 1.926646,-0.8257 1.140259,0 1.926645,0.8257 0.786386,0.78639 0.786386,1.92665 0,1.10094 -0.786386,1.92664 -0.786386,0.78639 -1.926645,0.78639 z"
         style="font-style:normal;font-variant:normal;font-weight:bold;font-stretch:normal;font-family:Comfortaa;-inkscape-font-specification:'Comfortaa Bold';fill:#429fe5;fill-opacity:1;stroke-width:0.982993"
         id="path892" />
    </g>
  </g>
</svg>
